<svg width="211" height="57" viewBox="0 0 211 57" fill="none" xmlns="http://www.w3.org/2000/svg">
<path fill-rule="evenodd" clip-rule="evenodd" d="M27.9062 15.2143C24.3912 15.2143 24.0397 15.5871 22.2205 15.5871C20.7052 15.5871 16.1547 11.875 13.8819 11.875C11.609 11.875 8.95374 13.2121 8.95374 17.0715V21.5246C8.95849 22.6931 9.38124 26.2746 11.0437 25.3175C9.07962 27.6402 8.88249 30.3501 8.90862 32.9721C8.37899 33.1241 7.83987 33.2975 7.31499 33.4756C5.69049 34.0314 3.96624 34.7391 3.18962 35.2426C2.79279 35.499 2.51405 35.9025 2.41473 36.3644C2.3154 36.8263 2.40363 37.3087 2.65999 37.7055C2.91636 38.1023 3.31986 38.3811 3.78174 38.4804C4.24362 38.5797 4.72604 38.4915 5.12287 38.2351C5.49337 37.9953 6.83524 37.4039 8.46687 36.8457L9.00837 36.6676C9.11762 37.696 9.39074 38.6389 9.79687 39.4939L9.73987 39.5247C8.76612 40.0378 7.86362 40.6291 7.28887 41.0044L7.02049 41.1801C6.62366 41.4365 6.34493 41.84 6.2456 42.3019C6.14628 42.7638 6.2345 43.2462 6.49087 43.643C6.74723 44.0398 7.15074 44.3186 7.61262 44.4179C8.07449 44.5172 8.55691 44.429 8.95374 44.1726L9.26487 43.9684C9.84674 43.5884 10.5925 43.1015 11.4047 42.674C11.5947 42.5727 11.7776 42.4808 11.9534 42.3985C16.0621 46.2531 23.4412 47.5 27.9062 47.5C32.3712 47.5 39.7504 46.2531 43.8591 42.3985C44.0333 42.4808 44.2162 42.5727 44.4077 42.674C45.22 43.1015 45.9657 43.5884 46.5476 43.9684L46.8587 44.1726C47.2556 44.429 47.738 44.5172 48.1999 44.4179C48.6618 44.3186 49.0653 44.0398 49.3216 43.643C49.578 43.2462 49.6662 42.7638 49.5669 42.3019C49.4676 41.84 49.1888 41.4365 48.792 41.1801L48.5236 41.0044C47.7299 40.4735 46.9121 39.9798 46.0726 39.5247L46.0156 39.4939C46.4217 38.6389 46.6949 37.696 46.8041 36.6676L47.3456 36.8457C48.9772 37.4039 50.3191 37.9953 50.692 38.2351C51.0886 38.4771 51.5641 38.5545 52.0171 38.4509C52.47 38.3472 52.8645 38.0707 53.1164 37.6803C53.3683 37.2898 53.4577 36.8164 53.3655 36.361C53.2733 35.9056 53.0068 35.5043 52.6229 35.2426C51.8462 34.7391 50.122 34.0314 48.4999 33.4756C47.9716 33.2953 47.4395 33.1266 46.9039 32.9697C46.9324 30.3477 46.7329 27.6402 44.7664 25.3175C46.4289 26.2746 46.8564 22.6931 46.8587 21.5223V17.0715C46.8587 13.2121 44.2059 11.875 41.9306 11.875C39.6577 11.875 35.1072 15.5871 33.5944 15.5871C31.7727 15.5871 31.4212 15.2143 27.9062 15.2143ZM26.3031 37.05C26.7829 36.8861 27.3505 36.8125 27.9062 36.8125C28.462 36.8125 29.0296 36.8861 29.5117 37.05C29.7492 37.1308 30.0342 37.259 30.2907 37.4633C30.4665 37.596 30.6102 37.7665 30.7113 37.9621C30.8124 38.1578 30.8683 38.3736 30.875 38.5938C30.875 39.14 30.5449 39.52 30.2907 39.7242C30.0366 39.9285 29.7469 40.0567 29.5117 40.1375C29.0296 40.3014 28.462 40.375 27.9062 40.375C27.3505 40.375 26.7829 40.3014 26.3031 40.1375C26.0211 40.0451 25.7568 39.9054 25.5217 39.7242C25.346 39.5915 25.2023 39.421 25.1012 39.2254C25.0001 39.0297 24.9441 38.8139 24.9375 38.5938C24.9375 38.0475 25.2676 37.6675 25.5217 37.4633C25.7759 37.259 26.068 37.1308 26.3031 37.05ZM33.06 29.6875C33.3854 29.146 34.0242 28.5 34.9837 28.5C35.9432 28.5 36.5845 29.146 36.9075 29.6875C37.2447 30.2551 37.4062 30.9391 37.4062 31.6184C37.4062 32.2976 37.2447 32.9792 36.9075 33.5445C36.5845 34.0884 35.9432 34.7344 34.9837 34.7344C34.0242 34.7344 33.3854 34.0884 33.06 33.5469C32.7252 32.9598 32.5531 32.2941 32.5612 31.6184C32.5612 30.9391 32.7227 30.2551 33.06 29.6899M18.905 29.6899C19.2304 29.1484 19.8692 28.5024 20.8287 28.5024C21.7882 28.5024 22.4295 29.1484 22.7525 29.6899C23.0897 30.2575 23.2512 30.9415 23.2512 31.6208C23.2512 32.3 23.0897 32.9816 22.7525 33.5469C22.4295 34.0907 21.7882 34.7368 20.8287 34.7368C19.8692 34.7368 19.2304 34.0908 18.905 33.5493C18.5702 32.9622 18.3981 32.2965 18.4062 31.6208C18.4062 30.9415 18.5677 30.2551 18.905 29.6899Z" fill="#E5FF84"/>
<path d="M58.824 40V17.6H70.792C73.8853 17.6 76.168 18.1546 77.64 19.264C79.112 20.352 79.848 21.7493 79.848 23.456C79.848 24.5866 79.528 25.6 78.888 26.496C78.2693 27.3706 77.3627 28.064 76.168 28.576C74.9733 29.088 73.5013 29.344 71.752 29.344L72.392 27.616C74.1413 27.616 75.6453 27.8613 76.904 28.352C78.184 28.8426 79.1653 29.5573 79.848 30.496C80.552 31.4133 80.904 32.5226 80.904 33.824C80.904 35.7653 80.0933 37.28 78.472 38.368C76.872 39.456 74.5253 40 71.432 40H58.824ZM66.248 34.72H70.792C71.624 34.72 72.2427 34.5706 72.648 34.272C73.0747 33.9733 73.288 33.536 73.288 32.96C73.288 32.384 73.0747 31.9466 72.648 31.648C72.2427 31.3493 71.624 31.2 70.792 31.2H65.736V26.208H69.768C70.6213 26.208 71.24 26.0693 71.624 25.792C72.0293 25.4933 72.232 25.0773 72.232 24.544C72.232 23.9893 72.0293 23.5733 71.624 23.296C71.24 23.0186 70.6213 22.88 69.768 22.88H66.248V34.72Z" fill="white"/>
<path d="M93.014 40.32C90.8807 40.32 89.014 39.9253 87.414 39.136C85.8353 38.3466 84.6087 37.2693 83.734 35.904C82.8593 34.5173 82.422 32.96 82.422 31.232C82.422 29.4613 82.8487 27.8933 83.702 26.528C84.5767 25.1626 85.7607 24.096 87.254 23.328C88.7687 22.56 90.4647 22.176 92.342 22.176C94.07 22.176 95.6593 22.5173 97.11 23.2C98.582 23.8826 99.7553 24.896 100.63 26.24C101.526 27.584 101.974 29.248 101.974 31.232C101.974 31.488 101.963 31.776 101.942 32.096C101.921 32.3946 101.899 32.672 101.878 32.928H88.406V29.44H98.038L95.318 30.368C95.318 29.6853 95.19 29.1093 94.934 28.64C94.6993 28.1493 94.3687 27.776 93.942 27.52C93.5153 27.2426 93.0033 27.104 92.406 27.104C91.8087 27.104 91.286 27.2426 90.838 27.52C90.4113 27.776 90.0807 28.1493 89.846 28.64C89.6113 29.1093 89.494 29.6853 89.494 30.368V31.456C89.494 32.2026 89.6433 32.8426 89.942 33.376C90.2407 33.9093 90.6673 34.3146 91.222 34.592C91.7767 34.848 92.4487 34.976 93.238 34.976C94.0487 34.976 94.71 34.8693 95.222 34.656C95.7553 34.4426 96.31 34.1226 96.886 33.696L100.662 37.504C99.8087 38.4213 98.7527 39.1253 97.494 39.616C96.2567 40.0853 94.7633 40.32 93.014 40.32Z" fill="white"/>
<path d="M104.256 40V22.496H111.136V27.776L110.016 26.272C110.55 24.9066 111.403 23.8826 112.576 23.2C113.75 22.5173 115.158 22.176 116.8 22.176V28.576C116.48 28.5333 116.192 28.5013 115.936 28.48C115.702 28.4586 115.456 28.448 115.2 28.448C114.112 28.448 113.216 28.736 112.512 29.312C111.83 29.8666 111.488 30.8373 111.488 32.224V40H104.256Z" fill="white"/>
<path d="M127.767 40.32C125.356 40.32 123.479 39.744 122.135 38.592C120.791 37.4186 120.119 35.6266 120.119 33.216V18.56H127.351V33.152C127.351 33.6853 127.489 34.1013 127.767 34.4C128.065 34.6986 128.428 34.848 128.855 34.848C129.473 34.848 130.017 34.688 130.487 34.368L132.215 39.392C131.66 39.712 130.988 39.9466 130.199 40.096C129.431 40.2453 128.62 40.32 127.767 40.32ZM117.719 28.736V23.456H130.935V28.736H117.719Z" fill="white"/>
<path d="M134.038 40V22.496H140.918V27.776L139.798 26.272C140.331 24.9066 141.184 23.8826 142.358 23.2C143.531 22.5173 144.939 22.176 146.582 22.176V28.576C146.262 28.5333 145.974 28.5013 145.718 28.48C145.483 28.4586 145.238 28.448 144.982 28.448C143.894 28.448 142.998 28.736 142.294 29.312C141.611 29.8666 141.27 30.8373 141.27 32.224V40H134.038Z" fill="white"/>
<path d="M158.255 40V36.896L157.743 36.064V30.176C157.743 29.3226 157.476 28.672 156.943 28.224C156.431 27.776 155.588 27.552 154.415 27.552C153.625 27.552 152.825 27.68 152.015 27.936C151.204 28.1706 150.51 28.5013 149.935 28.928L147.631 24.16C148.655 23.52 149.881 23.0293 151.311 22.688C152.74 22.3466 154.137 22.176 155.503 22.176C158.511 22.176 160.836 22.848 162.479 24.192C164.143 25.536 164.975 27.6693 164.975 30.592V40H158.255ZM153.295 40.32C151.865 40.32 150.671 40.0746 149.711 39.584C148.751 39.0933 148.025 38.4426 147.535 37.632C147.044 36.8 146.799 35.8826 146.799 34.88C146.799 33.7493 147.087 32.7893 147.663 32C148.239 31.2106 149.113 30.6133 150.287 30.208C151.481 29.8026 152.985 29.6 154.799 29.6H158.447V33.088H155.951C155.183 33.088 154.617 33.216 154.255 33.472C153.913 33.7066 153.743 34.0693 153.743 34.56C153.743 34.9653 153.892 35.3066 154.191 35.584C154.511 35.84 154.937 35.968 155.471 35.968C155.961 35.968 156.409 35.84 156.815 35.584C157.241 35.3066 157.551 34.88 157.743 34.304L158.671 36.448C158.393 37.7493 157.807 38.72 156.911 39.36C156.015 40 154.809 40.32 153.295 40.32Z" fill="white"/>
<path d="M180.26 22.176C181.604 22.176 182.82 22.4533 183.908 23.008C184.996 23.5413 185.849 24.384 186.468 25.536C187.108 26.688 187.428 28.1813 187.428 30.016V40H180.196V31.264C180.196 30.176 180.004 29.408 179.62 28.96C179.236 28.4906 178.713 28.256 178.052 28.256C177.561 28.256 177.103 28.3733 176.676 28.608C176.271 28.8213 175.94 29.184 175.684 29.696C175.449 30.208 175.332 30.9013 175.332 31.776V40H168.1V22.496H174.98V27.616L173.604 26.144C174.287 24.8213 175.204 23.8293 176.356 23.168C177.529 22.5066 178.831 22.176 180.26 22.176Z" fill="white"/>
<path d="M198.561 40.32C197.047 40.32 195.639 39.9573 194.337 39.232C193.057 38.4853 192.033 37.44 191.265 36.096C190.497 34.7306 190.113 33.1093 190.113 31.232C190.113 29.3546 190.497 27.744 191.265 26.4C192.033 25.0346 193.057 23.9893 194.337 23.264C195.639 22.5386 197.047 22.176 198.561 22.176C200.097 22.176 201.356 22.5066 202.337 23.168C203.319 23.808 204.044 24.8 204.513 26.144C204.983 27.4666 205.217 29.1626 205.217 31.232C205.217 33.3226 204.993 35.04 204.545 36.384C204.119 37.728 203.415 38.72 202.433 39.36C201.473 40 200.183 40.32 198.561 40.32ZM200.289 34.688C200.823 34.688 201.303 34.56 201.729 34.304C202.156 34.048 202.497 33.664 202.753 33.152C203.009 32.6186 203.137 31.9786 203.137 31.232C203.137 30.464 203.009 29.8346 202.753 29.344C202.497 28.832 202.156 28.448 201.729 28.192C201.303 27.936 200.823 27.808 200.289 27.808C199.756 27.808 199.276 27.936 198.849 28.192C198.423 28.448 198.081 28.832 197.825 29.344C197.569 29.8346 197.441 30.464 197.441 31.232C197.441 31.9786 197.569 32.6186 197.825 33.152C198.081 33.664 198.423 34.048 198.849 34.304C199.276 34.56 199.756 34.688 200.289 34.688ZM203.361 40V37.632L203.329 31.232L203.009 24.832V16.256H210.241V40H203.361Z" fill="white"/>
</svg>
