<svg width="52" height="36" viewBox="0 0 52 36" fill="none" xmlns="http://www.w3.org/2000/svg">
<path fill-rule="evenodd" clip-rule="evenodd" d="M25.5313 3.33925C22.0163 3.33925 21.6648 3.71213 19.8456 3.71213C18.3303 3.71213 13.7798 0 11.507 0C9.23408 0 6.57883 1.33713 6.57883 5.1965V9.64962C6.58358 10.8181 7.00633 14.3996 8.66883 13.4425C6.70471 15.7652 6.50758 18.4751 6.53371 21.0971C6.00408 21.2491 5.46496 21.4225 4.94008 21.6006C3.31558 22.1564 1.59133 22.8641 0.814709 23.3676C0.417879 23.624 0.139143 24.0275 0.0398187 24.4894C-0.0595052 24.9513 0.0287194 25.4337 0.285084 25.8305C0.541449 26.2273 0.944954 26.5061 1.40683 26.6054C1.86871 26.7047 2.35113 26.6165 2.74796 26.3601C3.11846 26.1203 4.46033 25.5289 6.09196 24.9707L6.63346 24.7926C6.74271 25.821 7.01583 26.7639 7.42196 27.6189L7.36496 27.6497C6.39121 28.1628 5.48871 28.7541 4.91396 29.1294L4.64558 29.3051C4.24875 29.5615 3.97002 29.965 3.87069 30.4269C3.77137 30.8888 3.85959 31.3712 4.11596 31.768C4.37232 32.1648 4.77583 32.4436 5.23771 32.5429C5.69959 32.6422 6.182 32.554 6.57883 32.2976L6.88996 32.0934C7.47183 31.7134 8.21758 31.2265 9.02983 30.799C9.21983 30.6977 9.40271 30.6058 9.57846 30.5235C13.6872 34.3781 21.0663 35.625 25.5313 35.625C29.9963 35.625 37.3755 34.3781 41.4842 30.5235C41.6584 30.6058 41.8413 30.6977 42.0328 30.799C42.8451 31.2265 43.5908 31.7134 44.1727 32.0934L44.4838 32.2976C44.8807 32.554 45.3631 32.6422 45.825 32.5429C46.2868 32.4436 46.6903 32.1648 46.9467 31.768C47.2031 31.3712 47.2913 30.8888 47.192 30.4269C47.0927 29.965 46.8139 29.5615 46.4171 29.3051L46.1487 29.1294C45.355 28.5985 44.5372 28.1048 43.6977 27.6497L43.6407 27.6189C44.0468 26.7639 44.32 25.821 44.4292 24.7926L44.9707 24.9707C46.6023 25.5289 47.9442 26.1203 48.3171 26.3601C48.7137 26.6021 49.1892 26.6795 49.6422 26.5759C50.0951 26.4722 50.4896 26.1957 50.7415 25.8053C50.9934 25.4148 51.0828 24.9414 50.9906 24.486C50.8984 24.0306 50.6319 23.6293 50.248 23.3676C49.4713 22.8641 47.7471 22.1564 46.125 21.6006C45.5967 21.4203 45.0646 21.2516 44.529 21.0947C44.5575 18.4727 44.358 15.7652 42.3915 13.4425C44.054 14.3996 44.4815 10.8181 44.4838 9.64725V5.1965C44.4838 1.33713 41.831 0 39.5557 0C37.2828 0 32.7323 3.71213 31.2195 3.71213C29.3978 3.71213 29.0463 3.33925 25.5313 3.33925ZM23.9282 25.175C24.408 25.0111 24.9756 24.9375 25.5313 24.9375C26.0871 24.9375 26.6547 25.0111 27.1368 25.175C27.3743 25.2558 27.6593 25.384 27.9158 25.5883C28.0916 25.721 28.2353 25.8915 28.3364 26.0871C28.4375 26.2828 28.4934 26.4986 28.5001 26.7188C28.5001 27.265 28.17 27.645 27.9158 27.8492C27.6617 28.0535 27.372 28.1817 27.1368 28.2625C26.6547 28.4264 26.0871 28.5 25.5313 28.5C24.9756 28.5 24.408 28.4264 23.9282 28.2625C23.6462 28.1701 23.3819 28.0304 23.1468 27.8492C22.9711 27.7165 22.8274 27.546 22.7263 27.3504C22.6252 27.1547 22.5692 26.9389 22.5626 26.7188C22.5626 26.1725 22.8927 25.7925 23.1468 25.5883C23.401 25.384 23.6931 25.2558 23.9282 25.175ZM30.6851 17.8125C31.0105 17.271 31.6493 16.625 32.6088 16.625C33.5683 16.625 34.2096 17.271 34.5326 17.8125C34.8698 18.3801 35.0313 19.0641 35.0313 19.7434C35.0313 20.4226 34.8698 21.1042 34.5326 21.6695C34.2096 22.2134 33.5683 22.8594 32.6088 22.8594C31.6493 22.8594 31.0105 22.2134 30.6851 21.6719C30.3503 21.0848 30.1781 20.4191 30.1863 19.7434C30.1863 19.0641 30.3478 18.3801 30.6851 17.8149M16.5301 17.8149C16.8555 17.2734 17.4943 16.6274 18.4538 16.6274C19.4133 16.6274 20.0546 17.2734 20.3776 17.8149C20.7148 18.3825 20.8763 19.0665 20.8763 19.7458C20.8763 20.425 20.7148 21.1066 20.3776 21.6719C20.0546 22.2157 19.4133 22.8618 18.4538 22.8618C17.4943 22.8618 16.8555 22.2158 16.5301 21.6743C16.1953 21.0872 16.0231 20.4215 16.0313 19.7458C16.0313 19.0665 16.1928 18.3801 16.5301 17.8149Z" fill="#5461EE"/>
</svg>
